<svg xmlns="http://www.w3.org/2000/svg" viewBox="0 0 176.48 176.8" width="176.48" height="176.8"><rect x="38.24" y="0" width="100" height="100" rx="22" fill="#FACC15"/><path d="M88.81 79Q81.76 79 76.53 76.88Q71.3 74.75 68.38 70.43Q65.46 66.11 65.34 59.59H78.2Q78.39 62.32 79.69 64.18Q81 66.04 83.29 66.96Q85.59 67.89 88.66 67.89Q91.43 67.89 93.43 67.13Q95.44 66.38 96.52 65.01Q97.6 63.65 97.6 61.83Q97.6 60.2 96.6 59.06Q95.6 57.92 93.59 57.05Q91.58 56.18 88.47 55.5L82.48 54.09Q75.16 52.43 70.99 48.64Q66.82 44.84 66.82 38.48Q66.82 33.24 69.67 29.3Q72.51 25.36 77.46 23.18Q82.4 21 88.81 21Q95.37 21 100.18 23.22Q105 25.44 107.65 29.4Q110.3 33.36 110.38 38.59H97.53Q97.26 35.52 95.03 33.81Q92.79 32.11 88.77 32.11Q86.12 32.11 84.3 32.81Q82.48 33.51 81.57 34.74Q80.66 35.97 80.66 37.57Q80.66 39.31 81.68 40.5Q82.71 41.7 84.6 42.49Q86.5 43.29 89 43.86L93.89 45Q97.98 45.87 101.19 47.37Q104.39 48.86 106.61 50.95Q108.83 53.03 109.98 55.76Q111.14 58.49 111.14 61.87Q111.14 67.21 108.47 71.06Q105.79 74.91 100.81 76.95Q95.82 79 88.81 79Z" fill="#0A0A0A"/><path d="M14.14 156.46Q9.89 156.46 6.74 155.18Q3.59 153.9 1.83 151.3Q0.07 148.69 0 144.76H7.74Q7.86 146.41 8.64 147.53Q9.43 148.65 10.81 149.21Q12.19 149.77 14.04 149.77Q15.71 149.77 16.92 149.31Q18.13 148.85 18.78 148.03Q19.43 147.21 19.43 146.11Q19.43 145.13 18.83 144.45Q18.22 143.76 17.01 143.23Q15.8 142.71 13.93 142.3L10.32 141.45Q5.91 140.45 3.4 138.17Q0.89 135.88 0.89 132.05Q0.89 128.89 2.6 126.52Q4.32 124.14 7.3 122.83Q10.28 121.52 14.14 121.52Q18.09 121.52 20.99 122.85Q23.89 124.19 25.48 126.58Q27.08 128.96 27.13 132.11H19.39Q19.23 130.26 17.88 129.24Q16.53 128.21 14.11 128.21Q12.51 128.21 11.42 128.63Q10.32 129.05 9.77 129.8Q9.23 130.54 9.23 131.5Q9.23 132.55 9.84 133.27Q10.46 133.99 11.6 134.47Q12.74 134.95 14.25 135.29L17.2 135.97Q19.66 136.5 21.59 137.4Q23.52 138.3 24.86 139.56Q26.19 140.81 26.89 142.46Q27.59 144.1 27.59 146.13Q27.59 149.35 25.98 151.67Q24.37 153.99 21.36 155.22Q18.36 156.46 14.14 156.46ZM50.94 156.46Q46.35 156.46 42.71 154.42Q39.07 152.39 36.96 148.49Q34.84 144.58 34.84 139.01Q34.84 133.39 36.98 129.49Q39.11 125.58 42.77 123.55Q46.42 121.52 50.94 121.52Q53.98 121.52 56.56 122.35Q59.14 123.19 61.13 124.78Q63.11 126.38 64.36 128.7Q65.6 131.02 65.97 133.99H57.82Q57.61 132.73 57.06 131.74Q56.51 130.74 55.66 130.04Q54.8 129.33 53.66 128.96Q52.52 128.6 51.15 128.6Q48.66 128.6 46.84 129.83Q45.03 131.06 44.06 133.38Q43.09 135.7 43.09 139.01Q43.09 142.41 44.08 144.73Q45.07 147.05 46.87 148.21Q48.66 149.38 51.1 149.38Q52.47 149.38 53.61 149.01Q54.76 148.65 55.62 147.94Q56.49 147.23 57.06 146.24Q57.63 145.24 57.84 143.99H65.99Q65.76 146.27 64.69 148.48Q63.62 150.68 61.71 152.49Q59.8 154.31 57.11 155.38Q54.41 156.46 50.94 156.46ZM89.58 156.46Q84.99 156.46 81.32 154.42Q77.66 152.39 75.51 148.49Q73.36 144.58 73.36 139.01Q73.36 133.39 75.51 129.49Q77.66 125.58 81.32 123.55Q84.99 121.52 89.58 121.52Q94.14 121.52 97.81 123.55Q101.47 125.58 103.61 129.49Q105.74 133.39 105.74 139.01Q105.74 144.6 103.61 148.51Q101.47 152.41 97.81 154.44Q94.14 156.46 89.58 156.46ZM89.58 149.38Q92.04 149.38 93.82 148.19Q95.61 147 96.56 144.68Q97.52 142.37 97.52 139.01Q97.52 135.63 96.56 133.3Q95.61 130.97 93.82 129.78Q92.04 128.6 89.58 128.6Q87.09 128.6 85.31 129.8Q83.53 130.99 82.57 133.31Q81.61 135.63 81.61 139.01Q81.61 142.37 82.57 144.67Q83.53 146.98 85.31 148.18Q87.09 149.38 89.58 149.38ZM114.03 156V121.97H122.09V149.42H136.32V156ZM142.64 156 153.99 121.97H164.79L176.48 156H167.44L165.13 148.76H153.81L151.59 156ZM163.17 142.6 162.71 141.13Q161.57 137.41 160.52 133.21Q159.9 130.86 159.31 128.37Q158.74 130.86 158.19 133.23Q157.23 137.43 156.16 141.13L155.7 142.6Z" fill="#FFFFFF"/><path d="M4.08 174.92Q2.86 174.92 1.94 174.37Q1.03 173.82 0.51 172.81Q0 171.8 0 170.41Q0 168.98 0.53 167.97Q1.06 166.96 1.97 166.42Q2.88 165.88 4.03 165.88Q4.76 165.88 5.39 166.09Q6.02 166.3 6.51 166.69Q7 167.09 7.32 167.62Q7.64 168.16 7.74 168.81H6.12Q6.02 168.45 5.83 168.17Q5.64 167.9 5.38 167.7Q5.12 167.49 4.78 167.39Q4.45 167.29 4.05 167.29Q3.34 167.29 2.78 167.65Q2.22 168.01 1.9 168.7Q1.58 169.39 1.58 170.4Q1.58 171.39 1.9 172.08Q2.22 172.78 2.78 173.14Q3.35 173.51 4.08 173.51Q4.76 173.51 5.25 173.25Q5.74 172.99 6.02 172.51Q6.27 172.05 6.28 171.44H4.25V170.2H7.81V171.25Q7.81 172.38 7.33 173.21Q6.85 174.03 6.01 174.47Q5.17 174.92 4.08 174.92ZM14.5 174.8V165.99H20.22V167.32H16.08V169.7H19.91V171.01H16.08V173.47H20.24V174.8ZM30.07 174.94Q29.05 174.94 28.29 174.62Q27.54 174.3 27.12 173.69Q26.69 173.08 26.65 172.21H28.21Q28.25 172.67 28.5 172.98Q28.75 173.29 29.15 173.44Q29.56 173.59 30.06 173.59Q30.58 173.59 30.98 173.43Q31.38 173.27 31.6 172.98Q31.83 172.7 31.83 172.32Q31.83 171.97 31.63 171.75Q31.43 171.53 31.07 171.37Q30.72 171.21 30.24 171.09L29.24 170.83Q28.13 170.55 27.51 169.98Q26.9 169.4 26.9 168.47Q26.9 167.69 27.32 167.1Q27.74 166.52 28.46 166.2Q29.19 165.88 30.11 165.88Q31.05 165.88 31.76 166.2Q32.47 166.53 32.87 167.1Q33.27 167.67 33.29 168.4H31.76Q31.7 167.84 31.25 167.53Q30.8 167.22 30.09 167.22Q29.59 167.22 29.23 167.37Q28.88 167.52 28.68 167.78Q28.49 168.04 28.49 168.38Q28.49 168.74 28.72 168.98Q28.95 169.21 29.29 169.36Q29.64 169.5 29.99 169.59L30.82 169.8Q31.31 169.92 31.77 170.11Q32.23 170.31 32.6 170.61Q32.97 170.91 33.19 171.33Q33.4 171.76 33.4 172.33Q33.4 173.1 33.01 173.69Q32.61 174.28 31.87 174.61Q31.12 174.94 30.07 174.94ZM39.61 167.32V165.99H46.62V167.32H43.91V174.8H42.33V167.32ZM52.56 174.8 55.63 165.99H57.64L60.78 174.8H59.05L58.3 172.62H55.01L54.28 174.8ZM57.87 171.35 57.48 170.23Q57.25 169.52 57 168.62Q56.83 167.98 56.62 167.22Q56.42 167.99 56.25 168.64Q56.01 169.54 55.8 170.23L55.43 171.35ZM57.46 164.97Q57.2 164.97 56.99 164.88Q56.77 164.79 56.59 164.68Q56.41 164.56 56.26 164.48Q56.11 164.39 55.97 164.39Q55.8 164.39 55.71 164.55Q55.62 164.71 55.61 164.93H54.71Q54.73 164.26 55.03 163.87Q55.33 163.48 55.85 163.48Q56.12 163.48 56.33 163.57Q56.54 163.65 56.71 163.77Q56.89 163.88 57.04 163.96Q57.19 164.05 57.34 164.05Q57.52 164.05 57.61 163.92Q57.69 163.78 57.72 163.51H58.6Q58.58 164.19 58.27 164.58Q57.96 164.97 57.46 164.97ZM70.88 174.92Q69.72 174.92 68.81 174.38Q67.89 173.84 67.36 172.83Q66.83 171.82 66.83 170.4Q66.83 168.98 67.36 167.96Q67.89 166.95 68.81 166.41Q69.72 165.88 70.88 165.88Q72.03 165.88 72.95 166.41Q73.86 166.95 74.39 167.96Q74.92 168.98 74.92 170.4Q74.92 171.82 74.39 172.83Q73.86 173.85 72.95 174.38Q72.03 174.92 70.88 174.92ZM70.88 173.51Q71.6 173.51 72.15 173.15Q72.7 172.79 73.01 172.1Q73.33 171.4 73.33 170.4Q73.33 169.39 73.01 168.7Q72.7 168 72.15 167.65Q71.6 167.29 70.88 167.29Q70.16 167.29 69.6 167.65Q69.05 168.01 68.73 168.7Q68.42 169.4 68.42 170.4Q68.42 171.4 68.73 172.09Q69.05 172.78 69.6 173.15Q70.16 173.51 70.88 173.51ZM89.77 174.8V165.99H95.49V167.32H91.35V169.7H95.18V171.01H91.35V173.47H95.51V174.8ZM105.34 174.94Q104.32 174.94 103.57 174.62Q102.81 174.3 102.39 173.69Q101.96 173.08 101.93 172.21H103.48Q103.52 172.67 103.77 172.98Q104.02 173.29 104.43 173.44Q104.83 173.59 105.33 173.59Q105.85 173.59 106.25 173.43Q106.65 173.27 106.87 172.98Q107.1 172.7 107.1 172.32Q107.1 171.97 106.9 171.75Q106.7 171.53 106.34 171.37Q105.99 171.21 105.51 171.09L104.51 170.83Q103.4 170.55 102.79 169.98Q102.17 169.4 102.17 168.47Q102.17 167.69 102.59 167.1Q103.01 166.52 103.73 166.2Q104.46 165.88 105.38 165.88Q106.32 165.88 107.03 166.2Q107.74 166.53 108.14 167.1Q108.54 167.67 108.56 168.4H107.03Q106.97 167.84 106.52 167.53Q106.08 167.22 105.36 167.22Q104.86 167.22 104.51 167.37Q104.15 167.52 103.96 167.78Q103.76 168.04 103.76 168.38Q103.76 168.74 103.99 168.98Q104.22 169.21 104.56 169.36Q104.91 169.5 105.27 169.59L106.09 169.8Q106.58 169.92 107.04 170.11Q107.5 170.31 107.87 170.61Q108.24 170.91 108.46 171.33Q108.68 171.76 108.68 172.33Q108.68 173.1 108.28 173.69Q107.88 174.28 107.14 174.61Q106.39 174.94 105.34 174.94ZM119.03 174.92Q117.87 174.92 116.96 174.38Q116.05 173.84 115.53 172.83Q115 171.82 115 170.4Q115 168.98 115.53 167.96Q116.06 166.95 116.97 166.41Q117.88 165.88 119.03 165.88Q119.75 165.88 120.38 166.08Q121.01 166.28 121.5 166.68Q122 167.07 122.32 167.64Q122.64 168.2 122.74 168.93H121.15Q121.08 168.53 120.89 168.23Q120.7 167.93 120.42 167.72Q120.15 167.51 119.8 167.4Q119.45 167.29 119.05 167.29Q118.33 167.29 117.77 167.65Q117.22 168.01 116.9 168.71Q116.58 169.4 116.58 170.4Q116.58 171.41 116.9 172.1Q117.22 172.8 117.78 173.15Q118.34 173.51 119.05 173.51Q119.44 173.51 119.79 173.4Q120.14 173.29 120.42 173.08Q120.7 172.87 120.89 172.56Q121.08 172.26 121.15 171.87H122.75Q122.66 172.5 122.36 173.05Q122.06 173.61 121.58 174.03Q121.09 174.45 120.45 174.68Q119.81 174.92 119.03 174.92ZM133.12 174.92Q131.96 174.92 131.05 174.38Q130.13 173.84 129.6 172.83Q129.07 171.82 129.07 170.4Q129.07 168.98 129.6 167.96Q130.13 166.95 131.05 166.41Q131.96 165.88 133.12 165.88Q134.27 165.88 135.19 166.41Q136.1 166.95 136.63 167.96Q137.16 168.98 137.16 170.4Q137.16 171.82 136.63 172.83Q136.1 173.85 135.19 174.38Q134.27 174.92 133.12 174.92ZM133.12 173.51Q133.83 173.51 134.39 173.15Q134.94 172.79 135.25 172.1Q135.57 171.4 135.57 170.4Q135.57 169.39 135.25 168.7Q134.94 168 134.39 167.65Q133.83 167.29 133.12 167.29Q132.4 167.29 131.84 167.65Q131.29 168.01 130.97 168.7Q130.66 169.4 130.66 170.4Q130.66 171.4 130.97 172.09Q131.29 172.78 131.84 173.15Q132.4 173.51 133.12 173.51ZM143.81 174.8V165.99H145.38V173.47H149.27V174.8ZM155.21 174.8 158.29 165.99H160.29L163.43 174.8H161.7L160.96 172.62H157.66L156.94 174.8ZM160.52 171.35 160.14 170.23Q159.9 169.52 159.66 168.62Q159.48 167.98 159.27 167.22Q159.08 167.99 158.91 168.64Q158.66 169.54 158.45 170.23L158.08 171.35ZM169.76 174.8V165.99H173.05Q174.07 165.99 174.76 166.35Q175.45 166.7 175.8 167.34Q176.16 167.97 176.16 168.81Q176.16 169.65 175.8 170.27Q175.44 170.89 174.74 171.23Q174.66 171.27 174.57 171.31L176.48 174.8H174.72L172.98 171.57H171.34V174.8ZM171.34 170.26H172.82Q173.42 170.26 173.8 170.09Q174.18 169.92 174.36 169.6Q174.54 169.27 174.54 168.81Q174.54 168.34 174.36 168.01Q174.18 167.67 173.8 167.49Q173.42 167.32 172.81 167.32H171.34Z" fill="#A3A3A3"/></svg>